<svg width="200" height="200" viewBox="0 0 200 200" fill="none" xmlns="http://www.w3.org/2000/svg">
<rect width="80" height="80" rx="40" transform="matrix(1 0 0 -1 113.334 86.666)" fill="#6F9EFD"/>
<path fill-rule="evenodd" clip-rule="evenodd" d="M0 50C0 22.3858 22.3858 0 50 0C77.6142 0 100 22.3858 100 50V86.6667C100 94.0305 105.97 100 113.333 100H150C177.614 100 200 122.386 200 150C200 177.614 177.614 200 150 200C122.386 200 100 177.614 100 150C100 177.614 77.6142 200 50 200C22.3858 200 0 177.614 0 150C0 122.386 22.3858 100 50 100C22.3858 100 0 77.6142 0 50Z" fill="#B7CEFE"/>
</svg>
